<svg width="22" height="24" viewBox="0 0 22 24" fill="none" xmlns="http://www.w3.org/2000/svg">
<path d="M15.9547 0.0703144C15.2562 0.201565 14.5953 0.473438 14.0375 0.848438L13.775 1.03125L7.63906 1.04063L1.50781 1.05469L1.2125 1.21406C0.846871 1.41094 0.537496 1.74844 0.396871 2.1L0.289059 2.36719L0.274996 11.0813C0.270309 16.8375 0.279684 19.8844 0.312496 20.0578C0.415621 20.6109 0.743747 21.0469 1.24062 21.2906L1.55 21.4453L2.49687 21.4594L3.43906 21.4734L3.46718 22.05C3.50468 22.8938 3.69218 23.3156 4.18906 23.6719C4.68593 24.0234 4.25468 24.0047 11.4453 23.9906L17.8672 23.9766L18.1344 23.85C18.6406 23.6156 19.0109 23.1281 19.1141 22.575C19.1422 22.425 19.1516 20.9906 19.1469 18.9656L19.1328 15.6L18.9781 15.4641C18.7859 15.2906 18.5609 15.2813 18.3734 15.4406L18.2422 15.5531L18.2187 19.0406L18.1953 22.5234L18.0875 22.6969C18.0266 22.7953 17.9 22.9078 17.7781 22.9641C17.5812 23.0625 17.5578 23.0625 11.3141 23.0625C4.45625 23.0625 4.85937 23.0813 4.61093 22.7859C4.44218 22.5844 4.41406 22.4625 4.41406 21.9375V21.4922L9.54687 21.4688L14.6797 21.4453L14.9937 21.2906C15.5 21.0422 15.8328 20.5875 15.9266 20.0203C15.95 19.875 15.9687 17.5781 15.9687 14.7891V9.82031L16.7562 9.81563C17.3281 9.81563 17.6234 9.79219 17.8578 9.73594C18.0359 9.69375 18.1859 9.65625 18.2 9.65625C18.2094 9.65625 18.2187 10.1203 18.2187 10.6828V11.7094L18.3406 11.8547C18.4391 11.9719 18.4953 12 18.65 12C19.1187 12 19.1562 11.8828 19.1562 10.4203V9.25781L19.5266 9.00938C20.2297 8.54531 20.8906 7.77656 21.2422 7.0125C22.3766 4.56094 21.3687 1.71094 18.9453 0.510939C18.2937 0.187502 17.6984 0.0421886 16.9297 0.0187511C16.5172 0.00937653 16.2031 0.0234394 15.9547 0.0703144ZM17.8109 1.07344C18.9359 1.36875 19.8922 2.175 20.3984 3.24844C20.6656 3.80625 20.7594 4.24688 20.7594 4.92188C20.7594 5.59688 20.6656 6.0375 20.3984 6.60469C19.475 8.55 17.2203 9.41719 15.2422 8.59219C14.5812 8.31563 13.8359 7.69219 13.4469 7.0875C12.6687 5.86406 12.6125 4.24219 13.3062 3C13.8641 2.00156 14.8484 1.27031 15.9641 1.02656C16.4844 0.914064 17.2812 0.932814 17.8109 1.07344ZM12.8281 1.9875C12.8281 2.00156 12.7625 2.10469 12.6875 2.22188C12.3031 2.79375 11.9797 3.67969 11.9047 4.38281L11.8672 4.71094L7.8125 4.72031C4.85468 4.72969 3.72968 4.74844 3.65468 4.78594C3.43437 4.90313 3.40625 5.07187 3.40625 6.17344C3.40625 7.29375 3.43906 7.45781 3.6875 7.57969C3.83281 7.65469 12.3266 7.66875 12.5141 7.59844C12.6219 7.55625 12.6453 7.575 12.7578 7.74375C13.1375 8.31563 14.0328 9.06563 14.7406 9.39375L15.0312 9.53438L15.0219 14.7609L15.0078 19.9922L14.8953 20.1703C14.8391 20.2688 14.7078 20.3859 14.6047 20.4375C14.4312 20.5313 14.3 20.5313 8.11718 20.5313C1.93437 20.5313 1.80312 20.5313 1.62968 20.4375C1.52656 20.3859 1.39531 20.2688 1.33906 20.1703L1.22656 19.9922L1.2125 11.3484C1.20781 5.62031 1.21718 2.64844 1.25 2.53125C1.31093 2.30625 1.44218 2.14219 1.63437 2.04844C1.775 1.97813 2.31406 1.96875 7.31093 1.96875C10.3437 1.96875 12.8281 1.97813 12.8281 1.9875ZM11.8812 6.17344L11.8672 6.67969L8.10781 6.69375L4.34375 6.70312V6.1875V5.67188H8.11718H11.8953L11.8812 6.17344Z" fill="#FFBE00"/>
</svg>
