<svg width="30" height="30" viewBox="0 0 30 30" fill="none" xmlns="http://www.w3.org/2000/svg">
<path d="M29 29L19.6667 19.6667M1 11.8889C1 13.3188 1.28165 14.7348 1.82886 16.0559C2.37606 17.377 3.17813 18.5774 4.18929 19.5885C5.20045 20.5996 6.40075 21.4017 7.7219 21.9489C9.04295 22.4961 10.4589 22.7778 11.8889 22.7778C13.3188 22.7778 14.7348 22.4961 16.0559 21.9489C17.377 21.4017 18.5774 20.5996 19.5885 19.5885C20.5996 18.5774 21.4017 17.377 21.9489 16.0559C22.4961 14.7348 22.7778 13.3188 22.7778 11.8889C22.7778 10.4589 22.4961 9.04295 21.9489 7.7219C21.4017 6.40075 20.5996 5.20045 19.5885 4.18929C18.5774 3.17813 17.377 2.37606 16.0559 1.82886C14.7348 1.28165 13.3188 1 11.8889 1C10.4589 1 9.04295 1.28165 7.7219 1.82886C6.40075 2.37606 5.20045 3.17813 4.18929 4.18929C3.17813 5.20045 2.37606 6.40075 1.82886 7.7219C1.28165 9.04295 1 10.4589 1 11.8889Z" stroke="#0D1117" stroke-width="1.45833" stroke-linecap="round" stroke-linejoin="round"/>
</svg>
