<svg width="21" height="36" viewBox="0 0 21 36" fill="none" xmlns="http://www.w3.org/2000/svg">
<path d="M0.625781 0.16172C0.435938 0.267188 0.260156 0.428907 0.161719 0.604688C0 0.878907 0 0.89297 0 4.14844C0 5.94844 0.0351563 7.7625 0.0703125 8.19141C0.16875 9.26016 0.39375 10.3781 0.682031 11.2078C1.18125 12.6563 1.66641 13.4016 2.93906 14.7164C3.4875 15.2859 3.98672 15.8695 4.09219 16.0734C4.52109 16.8609 4.5 16.425 4.5 26.1914V35.1211L4.66172 35.3953C4.76016 35.5711 4.93594 35.7328 5.12578 35.8383L5.44219 36L10.2375 35.9859C14.9625 35.9648 15.0398 35.9648 15.2297 35.8172C15.3352 35.7398 15.4898 35.5852 15.5672 35.4797C15.7148 35.2898 15.7148 35.2406 15.75 26.1C15.7852 17.4938 15.7922 16.8891 15.9117 16.5938C16.1578 15.982 16.418 15.6305 17.3391 14.6883C18.5555 13.4438 19.0547 12.6703 19.5469 11.2852C20.1445 9.60469 20.2711 8.26172 20.2359 3.92344C20.2148 0.808595 20.2078 0.710157 20.0672 0.520313C19.9898 0.414845 19.8352 0.260157 19.7297 0.182813C19.5398 0.0351572 19.5047 0.0351572 10.2375 0.0140635L0.942188 9.53674e-07L0.625781 0.16172ZM18 3.9375V5.625H10.125H2.25V3.9375V2.25H10.125H18V3.9375ZM17.9719 8.27578C17.8313 9.48516 17.557 10.4555 17.1141 11.3414C16.7273 12.1078 16.5234 12.375 15.6375 13.2328C14.7586 14.0906 14.2594 14.7727 13.9289 15.5672C13.4859 16.6359 13.5 16.3266 13.5 25.4531V33.75H10.125H6.75L6.73594 25.2211C6.71484 16.7766 6.71484 16.6922 6.56719 16.207C6.20859 15.0328 5.7375 14.2945 4.68281 13.2539C3.62813 12.2133 3.19922 11.5594 2.78438 10.3219C2.65781 9.94922 2.41875 8.70469 2.36953 8.20547L2.33438 7.875H10.1742H18.0141L17.9719 8.27578Z" fill="white"/>
<path d="M9.55547 16.9735C8.61328 17.2477 7.94531 18.1406 7.94531 19.125C7.94531 21.157 10.4414 22.1274 11.8055 20.6297C12.607 19.7578 12.607 18.4922 11.8055 17.6203C11.243 17.0016 10.35 16.7414 9.55547 16.9735Z" fill="white"/>
</svg>
