<svg width="24" height="24" viewBox="0 0 24 24" fill="none" xmlns="http://www.w3.org/2000/svg">
<path d="M11.8189 0.0226421C11.8189 0.0339622 11.7985 0.0452843 11.7758 0.0452843C11.6853 0.0452843 11.5313 0.156227 11.28 0.400755C11.1374 0.541132 11.0174 0.656605 11.0128 0.656605C11.0083 0.656605 10.8657 0.794718 10.6981 0.962265C10.5306 1.12981 10.3879 1.26793 10.3811 1.26793C10.3743 1.26793 10.2725 1.36302 10.1547 1.47623C9.80377 1.82264 9.55472 2.06038 9.5434 2.06038C9.53887 2.06038 9.36 2.23019 9.14943 2.43849C8.93887 2.64906 8.65811 2.92076 8.52453 3.04528C8.39321 3.16981 8.18491 3.36906 8.06264 3.48679C7.7117 3.82642 7.49434 4.03019 7.48075 4.03019C7.46038 4.03019 7.31321 4.18641 7.31321 4.20906C7.31321 4.22038 7.29283 4.23849 7.26792 4.24528C7.24302 4.25208 7.22264 4.27472 7.22264 4.29283C7.22264 4.31094 7.21358 4.32453 7.20453 4.32453C7.19321 4.32453 7.0483 4.46038 6.87849 4.6234C6.71094 4.78868 6.49358 4.99472 6.39623 5.08302C6.29887 5.16906 6.02264 5.43396 5.78491 5.6717C5.54491 5.90717 5.32528 6.12 5.29811 6.14038C5.27094 6.16076 5.02189 6.39849 4.74566 6.66566C4.4717 6.93509 4.21585 7.17736 4.17962 7.20453C4.1434 7.23396 3.90792 7.46038 3.65887 7.70943C3.40755 7.95849 3.13132 8.2234 3.04528 8.29811C2.95925 8.37283 2.68528 8.63547 2.43849 8.88C2.18943 9.12679 1.97887 9.3283 1.96981 9.3283C1.96075 9.3283 1.7683 9.50943 1.54642 9.72906C1.32226 9.95094 1.05057 10.2136 0.939623 10.3132C0.643019 10.5826 0.226415 11.006 0.226415 11.04C0.226415 11.0558 0.219623 11.0717 0.210566 11.0762C0.183396 11.0875 0.090566 11.2664 0.090566 11.3072C0.090566 11.3275 0.0815094 11.3434 0.0679245 11.3434C0.0566038 11.3434 0.045283 11.3842 0.045283 11.434C0.045283 11.4838 0.0362264 11.5245 0.0226415 11.5245C0.0090566 11.5245 0 11.6196 0 11.7623C0 11.9049 0.0090566 12 0.0226415 12C0.0362264 12 0.045283 12.0294 0.045283 12.0657C0.045283 12.1042 0.0566038 12.1404 0.0679245 12.1472C0.0815094 12.154 0.090566 12.1857 0.090566 12.2174C0.090566 12.2468 0.101887 12.2717 0.113208 12.2717C0.126792 12.2717 0.135849 12.2921 0.135849 12.317C0.135849 12.3419 0.14717 12.3623 0.158491 12.3623C0.172075 12.3623 0.181132 12.3781 0.181132 12.3962C0.181132 12.4143 0.190189 12.4302 0.201509 12.4302C0.21283 12.4302 0.228679 12.4483 0.237736 12.4732C0.251321 12.5162 0.373585 12.6566 0.398491 12.6566C0.405283 12.6566 0.441509 12.686 0.475472 12.7245C0.509434 12.763 0.554717 12.7925 0.575094 12.7925C0.595472 12.7925 0.611321 12.8015 0.611321 12.8106C0.611321 12.84 0.806038 12.9238 0.962264 12.9623C1.07094 12.9894 1.27472 12.9962 2.04 12.9962C2.88 12.9962 2.98641 13.0008 2.99774 13.0325C3.00453 13.0528 3.01132 15.0838 3.01132 17.5494C3.01132 20.7306 3.01811 22.0619 3.03623 22.1366C3.08604 22.3494 3.10642 22.4264 3.12679 22.4649C3.13811 22.4875 3.14717 22.526 3.14717 22.5509C3.14717 22.5758 3.15849 22.5962 3.16981 22.5962C3.1834 22.5962 3.19245 22.6166 3.19245 22.6415C3.19245 22.6664 3.20377 22.6868 3.21509 22.6868C3.22868 22.6868 3.23774 22.7004 3.23774 22.7162C3.23774 22.757 3.29208 22.8679 3.31245 22.8679C3.32151 22.8679 3.3283 22.8883 3.3283 22.9132C3.3283 22.9381 3.33962 22.9585 3.35094 22.9585C3.36453 22.9585 3.37358 22.9743 3.37358 22.9925C3.37358 23.0106 3.38264 23.0264 3.3917 23.0264C3.40075 23.0264 3.42792 23.0581 3.4483 23.0943C3.48906 23.1645 3.74491 23.434 3.76981 23.434C3.7766 23.434 3.81736 23.4702 3.86264 23.5132C3.90566 23.5562 3.95094 23.5925 3.96226 23.5925C3.97358 23.5925 3.99623 23.606 4.01208 23.6219C4.03698 23.6491 4.10943 23.6875 4.41962 23.8438C4.44226 23.8551 4.48075 23.8642 4.50566 23.8642C4.53057 23.8642 4.55094 23.8732 4.55094 23.8845C4.55094 23.9049 4.64151 23.9253 4.82943 23.9457C4.8883 23.9525 4.93585 23.9683 4.93585 23.9796C4.93585 23.9909 7.80906 24 12 24C16.6936 24 19.0641 23.9932 19.0641 23.9774C19.0641 23.9638 19.1208 23.9547 19.1887 23.9547C19.2566 23.9547 19.3132 23.9434 19.3132 23.9321C19.3132 23.9185 19.3449 23.9094 19.3811 23.9094C19.4196 23.9094 19.4491 23.8981 19.4491 23.8868C19.4491 23.8732 19.4694 23.8642 19.4943 23.8642C19.5192 23.8642 19.5577 23.8551 19.5804 23.8438C19.6008 23.8325 19.6981 23.7849 19.7955 23.7374C19.8906 23.6898 19.9698 23.6445 19.9698 23.6355C19.9698 23.6264 19.9902 23.6106 20.0151 23.6038C20.0423 23.5947 20.0966 23.554 20.1396 23.5109C20.1826 23.4679 20.2234 23.434 20.2302 23.434C20.2551 23.434 20.5109 23.1645 20.5517 23.0943C20.5721 23.0581 20.5992 23.0264 20.6083 23.0264C20.6174 23.0264 20.6264 23.0106 20.6264 22.9925C20.6264 22.9743 20.6377 22.9585 20.6491 22.9585C20.6626 22.9585 20.6717 22.9381 20.6717 22.9132C20.6717 22.8883 20.683 22.8679 20.6943 22.8679C20.7079 22.8679 20.717 22.8475 20.717 22.8226C20.717 22.7977 20.7283 22.7774 20.7396 22.7774C20.7532 22.7774 20.7623 22.757 20.7623 22.7321C20.7623 22.7072 20.7736 22.6868 20.7849 22.6868C20.7985 22.6868 20.8075 22.6664 20.8075 22.6415C20.8075 22.6166 20.8189 22.5962 20.8302 22.5962C20.8438 22.5962 20.8528 22.5758 20.8528 22.5509C20.8528 22.526 20.8619 22.4875 20.8732 22.4649C20.8845 22.4445 20.9049 22.3857 20.9162 22.3358C20.9275 22.286 20.9525 22.2 20.9683 22.1434C20.9909 22.0619 20.9977 21.12 21.0045 17.5177L21.0136 12.9962H21.9577C22.7253 12.9962 22.9291 12.9894 23.0377 12.9623C23.194 12.9238 23.3887 12.84 23.3887 12.8106C23.3887 12.8015 23.4045 12.7925 23.4249 12.7925C23.443 12.7925 23.4996 12.7517 23.5472 12.7019C23.5947 12.6521 23.6423 12.6113 23.6513 12.6113C23.674 12.6113 23.7487 12.5208 23.7623 12.4732C23.7713 12.4483 23.7872 12.4302 23.7985 12.4302C23.8098 12.4302 23.8189 12.4143 23.8189 12.3962C23.8189 12.3781 23.8302 12.3623 23.8415 12.3623C23.8551 12.3623 23.8642 12.3419 23.8642 12.317C23.8642 12.2921 23.8755 12.2717 23.8868 12.2717C23.9004 12.2717 23.9094 12.2468 23.9094 12.2174C23.9094 12.1857 23.9208 12.154 23.9321 12.1472C23.9457 12.1404 23.9547 12.1042 23.9547 12.0657C23.9547 12.0294 23.966 12 23.9774 12C23.9909 12 24 11.9049 24 11.7623C24 11.6196 23.9909 11.5245 23.9774 11.5245C23.966 11.5245 23.9547 11.4838 23.9547 11.434C23.9547 11.3842 23.9457 11.3434 23.9321 11.3434C23.9208 11.3434 23.9094 11.3298 23.9094 11.3117C23.9094 11.2732 23.8143 11.0853 23.7917 11.0762C23.7804 11.0717 23.7736 11.0581 23.7736 11.0468C23.7736 11.0038 23.357 10.5758 23.0626 10.3132C22.9766 10.2385 22.6958 9.96679 22.4332 9.70642C22.1728 9.4483 21.9532 9.23774 21.9464 9.23774C21.9328 9.23774 21.84 9.14943 21.3057 8.62642C21.1449 8.47019 20.957 8.29132 20.8891 8.23019C20.8189 8.16679 20.5653 7.92226 20.3253 7.68679C20.083 7.44906 19.7955 7.17509 19.6868 7.07547C19.5758 6.97585 19.3879 6.79698 19.2679 6.67924C19.1457 6.56151 18.9713 6.38943 18.8762 6.2966C18.7789 6.20604 18.7019 6.12453 18.7019 6.11547C18.7019 6.10641 18.677 6.08604 18.6453 6.07245C18.6136 6.05887 18.5887 6.03623 18.5887 6.02264C18.5887 6.01132 18.5796 6 18.5706 6C18.5592 6 18.3758 5.83019 18.1653 5.61962C17.9525 5.41132 17.6898 5.16 17.5811 5.06038C17.4725 4.96075 17.1894 4.68906 16.954 4.45358C16.7185 4.22038 16.5215 4.03019 16.517 4.03019C16.5057 4.03019 16.2521 3.79019 15.9374 3.48679C15.8174 3.36906 15.5977 3.15849 15.4528 3.02264C15.3079 2.88453 15.0249 2.61283 14.8279 2.41585C14.6287 2.22113 14.4611 2.06038 14.4566 2.06038C14.4498 2.06038 14.3592 1.9766 14.2528 1.87245C14.1487 1.77057 13.954 1.58491 13.8226 1.46038C13.6913 1.33585 13.4264 1.08 13.2362 0.894341C12.5977 0.271698 12.4551 0.140377 12.3872 0.110945C12.3487 0.0928307 12.317 0.0724525 12.317 0.0633965C12.317 0.0520763 12.2875 0.0452843 12.2491 0.0452843C12.2128 0.0452843 12.1811 0.0339622 12.1811 0.0226421C12.1811 0.009058 12.1064 0 12 0C11.8936 0 11.8189 0.009058 11.8189 0.0226421ZM12.1064 1.89057C12.1494 1.93359 12.1879 1.96981 12.1947 1.96981C12.2015 1.96981 12.3736 2.13736 12.5774 2.3434C12.7834 2.54943 12.9555 2.71698 12.9623 2.71698C12.9691 2.71698 13.0506 2.7917 13.1434 2.88C13.2974 3.0317 13.5872 3.30792 13.8974 3.59774C13.9608 3.66113 14.0151 3.71774 14.0151 3.72453C14.0151 3.73359 14.0445 3.76755 14.0808 3.79925C14.4385 4.12528 14.5721 4.25208 14.7532 4.43094C14.8709 4.54642 14.9706 4.64151 14.9774 4.64151C14.9842 4.64151 15.0951 4.74566 15.2242 4.87245C15.3509 5.00151 15.5457 5.18717 15.6566 5.28679C15.96 5.56528 16.0302 5.63321 16.0302 5.64906C16.0302 5.65811 16.0732 5.7034 16.1275 5.75321C16.3653 5.9751 16.7049 6.29887 16.8792 6.46868C16.9857 6.57283 17.0762 6.6566 17.083 6.6566C17.0898 6.6566 17.2528 6.81509 17.4453 7.00755C17.6377 7.2 17.8008 7.35849 17.8075 7.35849C17.8121 7.35849 17.9298 7.46717 18.0679 7.60076C18.2038 7.7366 18.4551 7.9766 18.6249 8.13962C18.7947 8.30038 18.9894 8.4883 19.0551 8.5517C19.1208 8.61736 19.1819 8.6717 19.1864 8.6717C19.1932 8.6717 19.3925 8.86189 19.6279 9.09509C19.8657 9.33057 20.1464 9.60226 20.2551 9.70189C20.3615 9.80151 20.6242 10.0528 20.837 10.2611C21.0498 10.4717 21.2309 10.6415 21.2423 10.6415C21.2513 10.6415 21.2604 10.6506 21.2604 10.6642C21.2604 10.6755 21.2694 10.6868 21.2808 10.6868C21.3011 10.6868 22.0755 11.4475 22.0755 11.4679C22.0755 11.4725 21.6498 11.4815 21.1313 11.4883C20.2483 11.4974 19.997 11.5087 19.9698 11.5449C19.963 11.5517 19.9223 11.5766 19.8792 11.6015C19.7343 11.6785 19.5396 11.9185 19.5396 12.0204C19.5396 12.0453 19.5306 12.0725 19.517 12.0792C19.5011 12.0883 19.4943 13.7592 19.4943 17.0174C19.4943 20.2845 19.4875 21.9396 19.4717 21.9396C19.4604 21.9396 19.4491 21.9691 19.4491 22.0075C19.4491 22.0438 19.44 22.0755 19.4264 22.0755C19.4151 22.0755 19.4038 22.0913 19.4038 22.1117C19.4038 22.1321 19.3426 22.2068 19.2679 22.277C19.166 22.3743 19.0981 22.4174 18.9872 22.4558L18.8423 22.5057H11.9728C8.19396 22.5057 5.09434 22.4966 5.08302 22.4875C5.06943 22.4762 5.01736 22.4558 4.96528 22.4377C4.85887 22.406 4.59623 22.1728 4.59623 22.1117C4.59623 22.0913 4.58717 22.0755 4.57358 22.0755C4.56226 22.0755 4.55094 22.0438 4.55094 22.0075C4.55094 21.9691 4.54189 21.9396 4.5283 21.9396C4.51245 21.9396 4.50566 20.2845 4.50566 17.0174C4.50566 13.7592 4.49887 12.0883 4.48302 12.0792C4.46943 12.0725 4.46038 12.0408 4.46038 12.0091C4.46038 11.9796 4.45132 11.9547 4.43774 11.9547C4.42641 11.9547 4.41509 11.9389 4.41509 11.9208C4.41509 11.8574 4.2 11.6332 4.09359 11.5879C4.05962 11.5721 4.03019 11.5517 4.03019 11.5449C4.03019 11.5109 3.76755 11.4974 2.87094 11.4883C2.35019 11.4815 1.92453 11.4725 1.92453 11.4657C1.92453 11.4475 2.63547 10.7547 2.65358 10.7547C2.66264 10.7547 2.6717 10.7389 2.6717 10.7208C2.6717 10.7026 2.68528 10.6868 2.7034 10.6868C2.71925 10.6868 2.91623 10.5057 3.14038 10.2838C3.36453 10.0642 3.63623 9.80151 3.74717 9.70189C3.85585 9.60226 4.13887 9.33057 4.37434 9.09509C4.60981 8.86189 4.80679 8.6717 4.81132 8.6717C4.82264 8.6717 5.07849 8.4317 5.43623 8.08302C5.55623 7.96528 5.76453 7.76604 5.89811 7.64151C6.0317 7.51698 6.31245 7.24528 6.52302 7.03472C6.73358 6.82642 6.91019 6.6566 6.91698 6.6566C6.9283 6.6566 7.03925 6.55245 7.48302 6.11774C7.60075 6.00453 7.70264 5.90944 7.70717 5.90944C7.72528 5.90944 7.96981 5.65811 7.96981 5.64C7.96981 5.62868 7.97887 5.6151 7.99245 5.61057C8.01736 5.60151 8.44528 5.20076 8.75321 4.89509C8.87094 4.78189 8.97057 4.68679 8.97736 4.68679C8.98415 4.68679 9.08377 4.5917 9.20151 4.47623C9.31698 4.36302 9.50038 4.18641 9.60906 4.08679C9.96679 3.75623 9.98491 3.73811 9.98491 3.72453C9.98491 3.71547 10.0279 3.66792 10.0823 3.62038C10.5328 3.19472 10.6687 3.06566 10.834 2.90264C10.9404 2.80075 11.0309 2.71698 11.0377 2.71698C11.0445 2.71698 11.2075 2.55849 11.4 2.36604C11.5947 2.17359 11.76 2.01509 11.7691 2.01509C11.7781 2.01283 11.8257 1.96755 11.8755 1.91321C11.9253 1.85887 11.9796 1.81359 11.9977 1.81359C12.0158 1.81132 12.0634 1.84755 12.1064 1.89057Z" fill="#FFBE00"/>
</svg>
